# xmcd
#
# Track frame offsets: 
#        150
#        13417
#        31717
#        45712
#        58760
#        74122
#        88217
#        98495
#        119777
#        142180
#        159595
#        176417
#        202937
#        224335
#        235637
#        251810
#        264887
#        278945
#
# Disc length: 3870 seconds
#
# Revision: 0
# Processed by: cddbd v1.5.2PL0 Copyright (c) Steve Scherf et al.
# Submitted via: ExactAudioCopy v0.95b4
#
DISCID=0f0f1c12
DTITLE=Johnny Rivers  - Secret Agent Man - The Ultimate Johnny Rivers 
DTITLE=Anthology - Disc 2
DYEAR=1900
DGENRE=
TTITLE0=Help Me Rhonda
TTITLE1=Swayin' To The Music (Slow Dancin')
TTITLE2=Curious Mind (Um, Um, Um, Um)
TTITLE3=That's Alright Mama
TTITLE4=Honey Don't
TTITLE5=Big River
TTITLE6=Matchbox
TTITLE7=Down At The House Of Blues
TTITLE8=Closer To You
TTITLE9=Blue Suede Shoes (Tribute To Carl Perkins)
TTITLE10=Last Train To Memphis
TTITLE11=China (Live)
TTITLE12=Midnight Special (2004 Version)
TTITLE13=I'll Be Back
TTITLE14=Going Back To Big Sur
TTITLE15=Feel A Whole Lot Better
TTITLE16=Rollin' Stone
TTITLE17=Let It Rock
EXTD=
EXTT0=
EXTT1=
EXTT2=
EXTT3=
EXTT4=
EXTT5=
EXTT6=
EXTT7=
EXTT8=
EXTT9=
EXTT10=
EXTT11=
EXTT12=
EXTT13=
EXTT14=
EXTT15=
EXTT16=
EXTT17=
PLAYORDER=
